<?xml version="1.0" encoding="UTF-8"?>
<svg id="Layer_1" xmlns="http://www.w3.org/2000/svg" version="1.1" viewBox="0 0 20 21">
  <!-- Generator: Adobe Illustrator 29.0.0, SVG Export Plug-In . SVG Version: 2.1.0 Build 186)  -->
  <defs>
    <style>
      .st0 {
        fill: #fff;
      }
    </style>
  </defs>
  <path class="st0" d="M10,8c-.7,0-1.3.3-1.8.7-.5.5-.7,1.1-.7,1.8s.3,1.3.7,1.8c.5.5,1.1.7,1.8.7s1.3-.3,1.8-.7c.5-.5.7-1.1.7-1.8s-.3-1.3-.7-1.8c-.5-.5-1.1-.7-1.8-.7ZM10,6.3c1.1,0,2.2.4,2.9,1.2s1.2,1.8,1.2,2.9-.4,2.2-1.2,2.9c-.8.8-1.8,1.2-2.9,1.2s-2.2-.4-2.9-1.2c-.8-.8-1.2-1.8-1.2-2.9s.4-2.2,1.2-2.9,1.8-1.2,2.9-1.2ZM15.4,6.1c0,.3-.1.5-.3.7-.2.2-.5.3-.7.3s-.5-.1-.7-.3c-.2-.2-.3-.5-.3-.7s.1-.5.3-.7c.2-.2.5-.3.7-.3s.5.1.7.3c.2.2.3.5.3.7ZM10,3.8c-2.1,0-2.4,0-3.4,0-.7,0-1.1.1-1.5.3-.3.1-.6.3-.9.6-.3.3-.5.6-.6.9-.2.4-.2.8-.3,1.5,0,.9,0,1.2,0,3.4s0,2.4,0,3.4c0,.7.1,1.1.3,1.5.1.4.3.6.6.9.3.3.5.4.9.6.4.2.8.2,1.5.3.9,0,1.2,0,3.4,0s2.4,0,3.4,0c.7,0,1.1-.1,1.5-.3.3-.1.6-.3.9-.6.3-.3.4-.5.6-.9.2-.4.2-.9.3-1.5,0-.9,0-1.2,0-3.4s0-2.4,0-3.4c0-.7-.1-1.1-.3-1.5-.1-.3-.3-.6-.6-.9-.3-.3-.6-.5-.9-.6-.4-.2-.8-.2-1.5-.3-.9,0-1.2,0-3.4,0ZM10,2.2c2.3,0,2.5,0,3.4,0,.9,0,1.5.2,2,.4.5.2,1,.5,1.5,1,.4.4.8.9,1,1.5.2.5.3,1.1.4,2,0,.9,0,1.2,0,3.4s0,2.5,0,3.4c0,.9-.2,1.5-.4,2-.2.6-.5,1.1-1,1.5-.4.4-.9.8-1.5,1-.5.2-1.1.3-2,.4-.9,0-1.2,0-3.4,0s-2.5,0-3.4,0c-.9,0-1.5-.2-2-.4-.6-.2-1.1-.5-1.5-1-.4-.4-.8-.9-1-1.5-.2-.5-.3-1.1-.4-2,0-.9,0-1.2,0-3.4s0-2.5,0-3.4c0-.9.2-1.5.4-2,.2-.6.5-1.1,1-1.5.4-.4.9-.8,1.5-1,.5-.2,1.1-.3,2-.4.9,0,1.2,0,3.4,0Z"/>
</svg>