<?xml version="1.0" encoding="UTF-8"?>
<svg id="Layer_1" xmlns="http://www.w3.org/2000/svg" version="1.1" viewBox="0 0 20 21">
  <!-- Generator: Adobe Illustrator 29.0.0, SVG Export Plug-In . SVG Version: 2.1.0 Build 186)  -->
  <defs>
    <style>
      .st0 {
        fill: #fff;
      }
    </style>
  </defs>
  <path class="st0" d="M18.5,5.2c-.6.3-1.3.5-2,.5.7-.4,1.3-1.1,1.5-1.9-.7.4-1.4.7-2.2.8-.5-.6-1.2-.9-2-1.1-.8,0-1.5,0-2.2.4s-1.2.9-1.5,1.6-.4,1.5-.2,2.2c-1.4,0-2.7-.4-4-1.1-1.2-.6-2.3-1.5-3.2-2.6-.3.5-.5,1.1-.5,1.8,0,1.2.6,2.3,1.5,2.9-.6,0-1.1-.2-1.6-.4h0c0,.8.3,1.6.8,2.3.5.6,1.2,1.1,2,1.2-.5.1-1.1.2-1.6,0,.2.7.7,1.3,1.2,1.7.6.4,1.3.7,2,.7-.7.6-1.6,1-2.4,1.2-.9.2-1.8.3-2.7.2,1.6,1,3.4,1.6,5.3,1.6,6.4,0,9.9-5.3,9.9-9.9s0-.3,0-.4c.7-.5,1.3-1.1,1.7-1.8h.2Z"/>
</svg>