<?xml version="1.0" encoding="UTF-8"?>
<svg id="Layer_1" xmlns="http://www.w3.org/2000/svg" version="1.1" viewBox="0 0 20 21">
  <!-- Generator: Adobe Illustrator 29.0.0, SVG Export Plug-In . SVG Version: 2.1.0 Build 186)  -->
  <defs>
    <style>
      .st0 {
        fill: #fff;
      }
    </style>
  </defs>
  <path class="st0" d="M18,5.9c.4,1.5.4,4.6.4,4.6,0,0,0,3.1-.4,4.6-.2.8-.8,1.5-1.6,1.7-1.4.4-6.3.4-6.3.4,0,0-4.9,0-6.3-.4-.8-.2-1.4-.9-1.6-1.7-.4-1.5-.4-4.6-.4-4.6,0,0,0-3.1.4-4.6.2-.8.8-1.5,1.6-1.7,1.4-.4,6.3-.4,6.3-.4,0,0,4.9,0,6.3.4.8.2,1.4.9,1.6,1.7ZM8.3,13.4l5-2.9-5-2.9v5.8Z"/>
</svg>