<?xml version="1.0" encoding="UTF-8"?>
<svg id="Layer_1" xmlns="http://www.w3.org/2000/svg" version="1.1" viewBox="0 0 754 96">
  <!-- Generator: Adobe Illustrator 29.0.0, SVG Export Plug-In . SVG Version: 2.1.0 Build 186)  -->
  <defs>
    <style>
      .st0 {
        fill: #8a2be2;
      }
    </style>
  </defs>
  <path class="st0" d="M61.8,95L19.7,30.8v64.1H1.9V3.1h21l40.1,60.9V3.1h17.9v91.9h-19.1ZM141.4,96.9c-26.5,0-47-20.5-47-48S114.9,1.1,141.4,1.1s47.2,20.2,47.2,47.7-20.6,48-47.2,48ZM141.4,79.5c16.9,0,27.1-13.7,27.1-30.6s-10.2-30.3-27.1-30.3-27,13.4-27,30.3,10.2,30.6,27,30.6ZM241,95h-19.5V20.6h-28.9V3.1h77.4v17.5h-29.1v74.4ZM327.9,95h-19.5V3.1h59.4v16.9h-39.9v23.2h33.7v16.8h-33.7v35.1ZM422.8,96.9c-26.5,0-47-20.5-47-48S396.3,1.1,422.8,1.1s47.2,20.2,47.2,47.7-20.6,48-47.2,48ZM422.8,79.5c16.9,0,27.1-13.7,27.1-30.6s-10.2-30.3-27.1-30.3-27,13.4-27,30.3,10.2,30.6,27,30.6ZM558.8,3.1v57c0,21.8-13.8,36.9-37.8,36.9s-37.9-15.1-37.9-36.9V3.1h19.5v57.3c0,11.4,5.5,19.1,18.4,19.1s18.3-7.7,18.3-19.1V3.1h19.5ZM637.3,95l-42.1-64.1v64.1h-17.8V3.1h21l40.1,60.9V3.1h17.9v91.9h-19.1ZM707.9,95h-32.6V3.1h32.6c29.2,0,46.8,18.7,46.8,45.4s-18.3,46.5-46.8,46.5ZM694.8,19.8v58.4h12.2c18.3,0,27.9-10.6,27.9-29.7s-9.6-28.7-27.9-28.7h-12.2Z"/>
</svg>